<svg xmlns="http://www.w3.org/2000/svg" version="1.1" xmlns:xlink="http://www.w3.org/1999/xlink" xmlns:svgjs="http://svgjs.com/svgjs" width="512" height="512" x="0" y="0" viewBox="0 0 64 64" style="enable-background:new 0 0 512 512" xml:space="preserve" class=""><g><path fill="#f7ebd0" d="M35 15H25c-1-5-7-11-7-11 4-3 5.84-.41 8 0 2.95.57 3-3 6-3s3.05 3.57 6 3c2.16-.41 4-3 8 0 0 0-6 6-7 11z" data-original="#f7ebd0" class=""></path><path fill="#ea4e56" d="M41 17c0 .55-.22 1.05-.59 1.41-.36.37-.86.59-1.41.59H25c-1.1 0-2-.9-2-2 0-.55.22-1.05.59-1.41.36-.37.86-.59 1.41-.59h14c1.1 0 2 .9 2 2z" data-original="#ea4e56"></path><path fill="#f99430" d="M11 30c0 1.66-1.34 3-3 3s-3-1.34-3-3 1.34-3 3-3c.5 0 .98.12 1.39.34.96.5 1.61 1.5 1.61 2.66zM56 27c1.66 0 3 1.34 3 3s-1.34 3-3 3-3-1.34-3-3c0-1.16.65-2.16 1.61-2.66.41-.22.89-.34 1.39-.34z" data-original="#f99430" class=""></path><circle cx="32" cy="39" r="7" fill="#f9bb3d" data-original="#f9bb3d" class=""></circle><path fill="#f99430" d="M43.84 36.98c.72.51 1.16 1.23 1.16 2.02s-.44 1.51-1.16 2.02c-.67.47-.92 1.41-.58 2.16.37.79.4 1.63 0 2.32s-1.14 1.08-2.01 1.17c-.82.07-1.51.76-1.58 1.58-.09.87-.48 1.61-1.17 2.01s-1.53.37-2.32 0c-.75-.34-1.69-.09-2.16.58-.51.72-1.23 1.16-2.02 1.16s-1.51-.44-2.02-1.16c-.47-.67-1.41-.92-2.16-.58-.79.37-1.63.4-2.32 0s-1.08-1.14-1.17-2.01c-.07-.82-.76-1.51-1.58-1.58-.87-.09-1.61-.48-2.01-1.17s-.37-1.53 0-2.32c.34-.75.09-1.69-.58-2.16C19.44 40.51 19 39.79 19 39s.44-1.51 1.16-2.02c.67-.47.92-1.41.58-2.16-.37-.79-.4-1.63 0-2.32s1.14-1.08 2.01-1.17c.82-.07 1.51-.76 1.58-1.58.09-.87.48-1.61 1.17-2.01s1.53-.37 2.32 0c.75.34 1.69.09 2.16-.58.51-.72 1.23-1.16 2.02-1.16s1.51.44 2.02 1.16c.47.67 1.41.92 2.16.58.79-.37 1.63-.4 2.32 0s1.08 1.14 1.17 2.01c.07.82.76 1.51 1.58 1.58.87.09 1.61.48 2.01 1.17s.37 1.53 0 2.32c-.34.75-.09 1.69.58 2.16zM39 39c0-3.87-3.13-7-7-7s-7 3.13-7 7 3.13 7 7 7 7-3.13 7-7z" data-original="#f99430" class=""></path><path fill="#f7ebd0" d="M39 19c13 11 17 32 17 32s-9 6-24 6-24-6-24-6 4-21 17-32zm6 20c0-.79-.44-1.51-1.16-2.02-.67-.47-.92-1.41-.58-2.16.37-.79.4-1.63 0-2.32s-1.14-1.08-2.01-1.17c-.82-.07-1.51-.76-1.58-1.58-.09-.87-.48-1.61-1.17-2.01s-1.53-.37-2.32 0c-.75.34-1.69.09-2.16-.58C33.51 26.44 32.79 26 32 26s-1.51.44-2.02 1.16c-.47.67-1.41.92-2.16.58-.79-.37-1.63-.4-2.32 0s-1.08 1.14-1.17 2.01c-.07.82-.76 1.51-1.58 1.58-.87.09-1.61.48-2.01 1.17s-.37 1.53 0 2.32c.34.75.09 1.69-.58 2.16-.72.51-1.16 1.23-1.16 2.02s.44 1.51 1.16 2.02c.67.47.92 1.41.58 2.16-.37.79-.4 1.63 0 2.32s1.14 1.08 2.01 1.17c.82.07 1.51.76 1.58 1.58.09.87.48 1.61 1.17 2.01s1.53.37 2.32 0c.75-.34 1.69-.09 2.16.58.51.72 1.23 1.16 2.02 1.16s1.51-.44 2.02-1.16c.47-.67 1.41-.92 2.16-.58.79.37 1.63.4 2.32 0s1.08-1.14 1.17-2.01c.07-.82.76-1.51 1.58-1.58.87-.09 1.61-.48 2.01-1.17s.37-1.53 0-2.32c-.34-.75-.09-1.69.58-2.16.72-.51 1.16-1.23 1.16-2.02z" data-original="#f7ebd0" class=""></path><path fill="#ddc792" d="M56 51s-2 12-12 12H20C10 63 8 51 8 51s9 6 24 6 24-6 24-6z" data-original="#ddc792"></path><path fill="#fffbf3" d="M12.74 49.756a1.001 1.001 0 0 1-.971-1.244c.047-.188 1.17-4.616 2.335-6.957a1 1 0 1 1 1.791.891c-1.07 2.15-2.176 6.511-2.187 6.555a.998.998 0 0 1-.968.755z" data-original="#fffbf3"></path><g fill="#252525"><path d="M32 45a5.988 5.988 0 0 1-1.715-.248 1.003 1.003 0 0 0-1.244.674 1.002 1.002 0 0 0 .674 1.244c.737.219 1.507.33 2.285.33 4.411 0 8-3.589 8-8s-3.589-8-8-8-8 3.589-8 8c0 .778.111 1.548.33 2.285.158.529.712.827 1.244.674.529-.158.831-.715.674-1.244A6.006 6.006 0 0 1 32 33c3.309 0 6 2.691 6 6s-2.691 6-6 6z" fill="#252525" data-original="#252525" class=""></path><path d="M41.147 32.325c.34.035.954.169 1.247.677.295.508.102 1.092-.046 1.405-.538 1.188-.145 2.646.913 3.39.276.195.739.611.739 1.203s-.463 1.008-.735 1.201c-1.061.745-1.454 2.203-.91 3.402.142.303.335.887.04 1.396-.293.507-.907.641-1.229.675-1.309.112-2.379 1.183-2.49 2.474-.035.34-.169.954-.677 1.247-.507.294-1.093.101-1.405-.046-1.19-.538-2.646-.145-3.39.913-.196.275-.612.738-1.204.738s-1.008-.463-1.201-.735c-.745-1.059-2.203-1.455-3.402-.91-.303.141-.886.336-1.396.04-.507-.293-.641-.907-.675-1.229-.112-1.309-1.183-2.379-2.474-2.49-.34-.035-.954-.169-1.247-.677-.295-.508-.102-1.092.046-1.405.538-1.188.145-2.646-.913-3.39C20.463 40.008 20 39.592 20 39s.463-1.008.735-1.201c1.061-.745 1.454-2.203.91-3.402-.142-.303-.335-.887-.04-1.396.293-.507.907-.641 1.229-.675 1.309-.112 2.379-1.183 2.49-2.474.035-.34.169-.954.677-1.247.505-.294 1.092-.102 1.405.046 1.189.536 2.646.145 3.39-.913.196-.275.612-.738 1.204-.738s1.008.463 1.201.735c.745 1.06 2.203 1.455 3.402.91.304-.141.885-.337 1.395-.04a1 1 0 0 0 1.004-1.73c-.946-.549-2.128-.563-3.235-.046-.309.142-.737.029-.931-.247C34.123 25.577 33.09 25 32 25s-2.123.577-2.838 1.585c-.192.273-.616.386-.918.25-1.117-.523-2.299-.508-3.245.04-.944.546-1.535 1.531-1.665 2.79-.029.334-.335.64-.687.67-1.241.129-2.227.72-2.772 1.663-.549.946-.563 2.13-.046 3.235.142.312.029.736-.247.931C18.577 36.877 18 37.91 18 39s.577 2.123 1.585 2.838c.273.192.386.617.25.918-.523 1.116-.509 2.3.04 3.245.546.944 1.531 1.535 2.79 1.665.334.029.64.335.67.687.129 1.241.72 2.227 1.663 2.772.947.549 2.13.563 3.235.046a.79.79 0 0 1 .931.247C29.877 52.423 30.91 53 32 53s2.123-.577 2.838-1.585c.191-.272.616-.385.918-.25 1.118.524 2.301.508 3.245-.04.944-.546 1.535-1.531 1.665-2.79.029-.334.335-.64.687-.67 1.241-.129 2.227-.72 2.772-1.663.549-.946.563-2.13.046-3.235-.142-.312-.029-.736.247-.931C45.423 41.123 46 40.09 46 39s-.577-2.123-1.585-2.838c-.273-.192-.386-.617-.25-.918.523-1.116.509-2.3-.04-3.245-.546-.944-1.531-1.535-2.772-1.664a1 1 0 0 0-.206 1.99z" fill="#252525" data-original="#252525" class=""></path><path d="M56 34c2.206 0 4-1.794 4-4a4.004 4.004 0 0 0-5.002-3.873c-2.071-2.946-6.184-7.068-13.241-7.946.158-.367.243-.766.243-1.181a2.999 2.999 0 0 0-1.775-2.732c1.416-4.45 6.428-9.507 6.482-9.561A.998.998 0 0 0 46.6 3.2c-3.439-2.581-5.703-1.511-7.357-.732-.51.24-.99.467-1.432.551-.944.178-1.335-.198-2.139-1.071C34.876 1.079 33.885 0 32 0s-2.876 1.079-3.672 1.947c-.803.875-1.195 1.255-2.142 1.07-.438-.083-.919-.31-1.429-.55C23.104 1.69 20.84.622 17.4 3.2a1 1 0 0 0-.107 1.507c.054.054 5.064 5.109 6.481 9.559-.328.147-.63.348-.881.607A2.937 2.937 0 0 0 22 17c0 .419.088.818.244 1.18-7.057.878-11.17 5-13.242 7.947A4.004 4.004 0 0 0 4 30c0 2.206 1.794 4 4 4a4.004 4.004 0 0 0 2.764-6.895c1.864-2.585 5.437-6.07 11.47-6.911C10.796 31.592 7.174 49.99 7.018 50.813a1.015 1.015 0 0 0-.004.352C7.035 51.293 9.277 64 20 64h24c10.489 0 12.862-12.153 12.98-12.802l.001-.003c.002-.012.036-.194.001-.382-.158-.827-3.78-19.221-15.217-30.618 6.035.841 9.608 4.327 11.471 6.912A3.983 3.983 0 0 0 52 30c0 2.206 1.794 4 4 4zM8 32c-1.103 0-2-.897-2-2a2.002 2.002 0 0 1 2.928-1.773A2.002 2.002 0 0 1 8 32zM23.905 4.277c.6.282 1.22.574 1.905.704 2.077.403 3.184-.803 3.99-1.682C30.541 2.494 31.043 2 32 2s1.459.494 2.199 1.3c.807.879 1.904 2.087 3.987 1.683.688-.131 1.309-.423 1.908-.705 1.314-.618 2.475-1.163 4.36-.101-1.624 1.776-5.119 5.922-6.238 9.823h-2.175c.174-2.144.846-3.54.854-3.556a1 1 0 0 0-1.79-.892c-.04.081-.882 1.809-1.066 4.447H29.96c-.184-2.638-1.026-4.366-1.066-4.447a1 1 0 0 0-1.79.892c.008.015.68 1.412.854 3.556h-2.175c-1.119-3.901-4.614-8.047-6.238-9.823 1.888-1.063 3.047-.518 4.36.1zM24 17c0-.267.103-.514.307-.713A.959.959 0 0 1 25 16h14a1 1 0 0 1 1 1 .977.977 0 0 1-.307.713A.959.959 0 0 1 39 18H25a1 1 0 0 1-1-1zm30.874 33.514c-1.219.707-4.375 2.365-9.139 3.675a1 1 0 1 0 .53 1.928c3.686-1.013 6.45-2.222 8.182-3.098C53.392 56.273 50.605 62 44 62H20c-6.603 0-9.39-5.723-10.445-8.978C13.083 54.817 20.894 58 32 58c3.098 0 6.182-.255 9.166-.758a1 1 0 1 0-.332-1.972c-2.875.484-5.848.73-8.834.73-12.439 0-20.72-4.249-22.873-5.489.807-3.61 5.164-20.91 16.252-30.511h13.242c11.092 9.604 15.448 26.914 16.253 30.514zM58 30c0 1.103-.897 2-2 2a2.002 2.002 0 0 1-.917-3.779A2.002 2.002 0 0 1 58 30z" fill="#252525" data-original="#252525" class=""></path><circle cx="27" cy="44" r="1" fill="#252525" data-original="#252525" class=""></circle></g></g></svg>